<svg width="16" height="16" viewBox="0 0 16 16" fill="none" xmlns="http://www.w3.org/2000/svg">
<path d="M1.3182 14.2718L1.72825 14.6818C2.09925 15.0528 2.70075 15.0528 3.07175 14.6818L8 9.75355L12.9282 14.6818C13.2992 15.0528 13.9008 15.0528 14.2718 14.6818L14.6818 14.2718C15.0528 13.9008 15.0528 13.2992 14.6818 12.9282L9.75355 8L14.6818 3.07175C15.0528 2.70075 15.0528 2.09925 14.6818 1.72825L14.2718 1.3182C13.9008 0.9472 13.2992 0.9472 12.9282 1.3182L8 6.24645L3.07175 1.3182C2.70075 0.9472 2.09925 0.947199 1.72825 1.3182L1.3182 1.72825C0.9472 2.09925 0.947199 2.70075 1.3182 3.07175L6.24645 8L1.3182 12.9282C0.9472 13.2992 0.947199 13.9008 1.3182 14.2718Z" fill="#0DC1F8" stroke="#0DC1F8" stroke-width="0.5"/>
</svg>
