<svg width="152" height="20" viewBox="0 0 152 20" fill="none" xmlns="http://www.w3.org/2000/svg">
<g clip-path="url(#clip0_42_23)">
<path d="M10.4799 0.350059L12.4699 6.74006C12.5499 6.99006 12.7699 7.15006 13.0299 7.15006H19.4999C19.9799 7.15006 20.1799 7.76006 19.7999 8.05006L14.5199 12.0501C14.3199 12.2001 14.2399 12.4601 14.3099 12.6901L16.3199 19.1401C16.4599 19.6001 15.9299 19.9801 15.5399 19.6901L10.3499 15.7501C10.1399 15.5901 9.84987 15.5901 9.63987 15.7501L4.44987 19.6901C4.05987 19.9801 3.52987 19.6101 3.66987 19.1401L5.67987 12.6901C5.74987 12.4501 5.67987 12.2001 5.46987 12.0501L0.199872 8.05006C-0.180128 7.76006 0.019872 7.15006 0.499872 7.15006H6.96987C7.22987 7.15006 7.44987 6.98006 7.52987 6.74006L9.51987 0.350059C9.66987 -0.119941 10.3299 -0.119941 10.4699 0.350059H10.4799Z" fill="#0DC1F8"/>
</g>
<g clip-path="url(#clip1_42_23)">
<path d="M43.4799 0.350059L45.4699 6.74006C45.5499 6.99006 45.7699 7.15006 46.0299 7.15006H52.4999C52.9799 7.15006 53.1799 7.76006 52.7999 8.05006L47.5199 12.0501C47.3199 12.2001 47.2399 12.4601 47.3099 12.6901L49.3199 19.1401C49.4599 19.6001 48.9299 19.9801 48.5399 19.6901L43.3499 15.7501C43.1399 15.5901 42.8499 15.5901 42.6399 15.7501L37.4499 19.6901C37.0599 19.9801 36.5299 19.6101 36.6699 19.1401L38.6799 12.6901C38.7499 12.4501 38.6799 12.2001 38.4699 12.0501L33.1999 8.05006C32.8199 7.76006 33.0199 7.15006 33.4999 7.15006H39.9699C40.2299 7.15006 40.4499 6.98006 40.5299 6.74006L42.5199 0.350059C42.6699 -0.119941 43.3299 -0.119941 43.4699 0.350059H43.4799Z" fill="#0DC1F8"/>
</g>
<g clip-path="url(#clip2_42_23)">
<path d="M76.4799 0.350059L78.4699 6.74006C78.5499 6.99006 78.7699 7.15006 79.0299 7.15006H85.4999C85.9799 7.15006 86.1799 7.76006 85.7999 8.05006L80.5199 12.0501C80.3199 12.2001 80.2399 12.4601 80.3099 12.6901L82.3199 19.1401C82.4599 19.6001 81.9299 19.9801 81.5399 19.6901L76.3499 15.7501C76.1399 15.5901 75.8499 15.5901 75.6399 15.7501L70.4499 19.6901C70.0599 19.9801 69.5299 19.6101 69.6699 19.1401L71.6799 12.6901C71.7499 12.4501 71.6799 12.2001 71.4699 12.0501L66.1999 8.05006C65.8199 7.76006 66.0199 7.15006 66.4999 7.15006H72.9699C73.2299 7.15006 73.4499 6.98006 73.5299 6.74006L75.5199 0.350059C75.6699 -0.119941 76.3299 -0.119941 76.4699 0.350059H76.4799Z" fill="#0DC1F8"/>
</g>
<g clip-path="url(#clip3_42_23)">
<path d="M109.48 0.350059L111.47 6.74006C111.55 6.99006 111.77 7.15006 112.03 7.15006H118.5C118.98 7.15006 119.18 7.76006 118.8 8.05006L113.52 12.0501C113.32 12.2001 113.24 12.4601 113.31 12.6901L115.32 19.1401C115.46 19.6001 114.93 19.9801 114.54 19.6901L109.35 15.7501C109.14 15.5901 108.85 15.5901 108.64 15.7501L103.45 19.6901C103.06 19.9801 102.53 19.6101 102.67 19.1401L104.68 12.6901C104.75 12.4501 104.68 12.2001 104.47 12.0501L99.1999 8.05006C98.8199 7.76006 99.0199 7.15006 99.4999 7.15006H105.97C106.23 7.15006 106.45 6.98006 106.53 6.74006L108.52 0.350059C108.67 -0.119941 109.33 -0.119941 109.47 0.350059H109.48Z" fill="#0DC1F8"/>
</g>
<g clip-path="url(#clip4_42_23)">
<path d="M142.48 0.350059L144.47 6.74006C144.55 6.99006 144.77 7.15006 145.03 7.15006H151.5C151.98 7.15006 152.18 7.76006 151.8 8.05006L146.52 12.0501C146.32 12.2001 146.24 12.4601 146.31 12.6901L148.32 19.1401C148.46 19.6001 147.93 19.9801 147.54 19.6901L142.35 15.7501C142.14 15.5901 141.85 15.5901 141.64 15.7501L136.45 19.6901C136.06 19.9801 135.53 19.6101 135.67 19.1401L137.68 12.6901C137.75 12.4501 137.68 12.2001 137.47 12.0501L132.2 8.05006C131.82 7.76006 132.02 7.15006 132.5 7.15006H138.97C139.23 7.15006 139.45 6.98006 139.53 6.74006L141.52 0.350059C141.67 -0.119941 142.33 -0.119941 142.47 0.350059H142.48Z" fill="#0DC1F8"/>
</g>
<defs>
<clipPath id="clip0_42_23">
<rect width="20" height="19.79" fill="white"/>
</clipPath>
<clipPath id="clip1_42_23">
<rect width="20" height="19.79" fill="white" transform="translate(33)"/>
</clipPath>
<clipPath id="clip2_42_23">
<rect width="20" height="19.79" fill="white" transform="translate(66)"/>
</clipPath>
<clipPath id="clip3_42_23">
<rect width="20" height="19.79" fill="white" transform="translate(99)"/>
</clipPath>
<clipPath id="clip4_42_23">
<rect width="20" height="19.79" fill="white" transform="translate(132)"/>
</clipPath>
</defs>
</svg>
