<svg width="22" height="20" viewBox="0 0 22 20" fill="none" xmlns="http://www.w3.org/2000/svg">
<path d="M15.3497 9.63474C15.2557 9.96804 14.8418 10.0419 14.597 9.797L13.8374 9.03741C13.7202 8.92022 13.6723 8.75278 13.6864 8.58765C13.7446 7.9024 13.5075 7.25653 12.975 6.65005C12.4291 6.02835 11.7384 5.75155 10.9028 5.81963C10.7434 5.83262 10.5831 5.78313 10.47 5.67001L9.70305 4.90309C9.45817 4.65822 9.53201 4.24439 9.86531 4.15038C9.93082 4.1319 9.99656 4.11512 10.0625 4.10005C10.3542 4.03338 10.6667 4.00005 11 4.00005C12.25 4.00005 13.3125 4.43755 14.1875 5.31255C15.0625 6.18755 15.5 7.25005 15.5 8.50005C15.5 8.83338 15.4667 9.14588 15.4 9.43755C15.3849 9.50349 15.3682 9.56923 15.3497 9.63474ZM18.6363 13.1841C18.4458 13.3408 18.169 13.3236 17.9915 13.1522L17.2686 12.4542C17.0484 12.2416 17.0699 11.8834 17.3037 11.6858C17.7553 11.3041 18.1665 10.8964 18.5375 10.4626C18.9997 9.92206 19.3992 9.31161 19.7362 8.63121C19.7771 8.5487 19.7763 8.45169 19.7344 8.36973C18.9044 6.74755 17.7304 5.45349 16.2125 4.48755C14.6542 3.49588 12.9167 3.00005 11 3.00005C10.5167 3.00005 10.0417 3.03338 9.575 3.10005C9.20698 3.15262 8.84415 3.22593 8.4865 3.31996C8.30919 3.36658 8.11927 3.31932 7.98964 3.18969L7.17892 2.37897C6.92701 2.12706 7.01251 1.70091 7.34993 1.58658C7.80933 1.43092 8.27602 1.30624 8.75 1.21255C9.46667 1.07088 10.2167 1.00005 11 1.00005C13.5167 1.00005 15.7583 1.69588 17.725 3.08755C19.6374 4.44081 21.0376 6.18412 21.9256 8.31748C21.9743 8.4344 21.9748 8.56585 21.9269 8.68308C21.5534 9.59685 21.0735 10.4483 20.4875 11.2375C19.948 11.964 19.331 12.6129 18.6363 13.1841ZM19.1514 19.2486C18.957 19.443 18.6421 19.444 18.4465 19.2507L14.6 15.4501C14.0167 15.6334 13.4292 15.7709 12.8375 15.8626C12.2458 15.9542 11.6333 16 11 16C8.48333 16 6.24167 15.3042 4.275 13.9125C2.36305 12.5596 0.963039 10.8168 0.0749802 8.68409C0.0259291 8.5663 0.0257686 8.43378 0.0746602 8.31592C0.412128 7.50239 0.828908 6.74293 1.325 6.03755C1.85833 5.27922 2.46667 4.60005 3.15 4.00005L0.747212 1.55357C0.554948 1.35781 0.556363 1.04369 0.750383 0.849666L1.44645 0.153602C1.64171 -0.0416602 1.95829 -0.04166 2.15355 0.153602L19.8464 17.8465C20.0417 18.0418 20.0417 18.3583 19.8464 18.5536L19.1514 19.2486ZM4.75084 5.59611C4.63782 5.48578 4.45829 5.48165 4.34349 5.59012C3.94015 5.97125 3.56732 6.38289 3.225 6.82505C2.85419 7.30401 2.53352 7.81877 2.26297 8.36934C2.22255 8.45159 2.22351 8.54811 2.26525 8.62969C3.0953 10.2522 4.26939 11.5465 5.7875 12.5126C7.34583 13.5042 9.08333 14.0001 11 14.0001C11.3333 14.0001 11.6583 13.9792 11.975 13.9376C12.1087 13.92 12.2439 13.9016 12.3806 13.8825C12.6208 13.849 12.7211 13.5585 12.5543 13.3824L12.1735 12.9804C12.0975 12.9001 11.9836 12.869 11.876 12.8943C11.7552 12.9228 11.6382 12.9456 11.525 12.9626C11.3583 12.9876 11.1833 13 11 13C9.75 13 8.6875 12.5625 7.8125 11.6875C6.9375 10.8125 6.5 9.75005 6.5 8.50005C6.5 8.31672 6.5125 8.14172 6.5375 7.97505C6.55461 7.86097 6.57758 7.74299 6.60641 7.6211C6.63148 7.51507 6.60165 7.40285 6.52369 7.32674L4.75084 5.59611Z" fill="#88CDE2"/>
</svg>
