<svg width="16" height="22" viewBox="0 0 16 22" fill="none" xmlns="http://www.w3.org/2000/svg">
<path d="M2 8H10.7C10.8657 8 11 7.86569 11 7.7V5C11 4.16667 10.7083 3.45833 10.125 2.875C9.54167 2.29167 8.83333 2 8 2C7.16667 2 6.45833 2.29167 5.875 2.875C5.38714 3.36286 5.10329 3.93815 5.02344 4.60087C4.99701 4.8202 4.82091 5 4.6 5H3.4C3.17909 5 2.99834 4.82063 3.01397 4.60026C3.09994 3.38813 3.58279 2.34221 4.4625 1.4625C5.4375 0.4875 6.61667 0 8 0C9.38333 0 10.5625 0.4875 11.5375 1.4625C12.5125 2.4375 13 3.61667 13 5V7.7C13 7.86569 13.1343 8 13.3 8H14H15.2C15.6418 8 16 8.35817 16 8.8V10V20V21.2C16 21.6418 15.6418 22 15.2 22H14H2H0.8C0.358172 22 0 21.6418 0 21.2V20V10V8.8C0 8.35817 0.358172 8 0.8 8H2ZM2 19.7C2 19.8657 2.13431 20 2.3 20H13.7C13.8657 20 14 19.8657 14 19.7V10.3C14 10.1343 13.8657 10 13.7 10H2.3C2.13432 10 2 10.1343 2 10.3V19.7ZM8 17C8.55 17 9.02083 16.8042 9.4125 16.4125C9.80417 16.0208 10 15.55 10 15C10 14.45 9.80417 13.9792 9.4125 13.5875C9.02083 13.1958 8.55 13 8 13C7.45 13 6.97917 13.1958 6.5875 13.5875C6.19583 13.9792 6 14.45 6 15C6 15.55 6.19583 16.0208 6.5875 16.4125C6.97917 16.8042 7.45 17 8 17Z" fill="#88CDE2"/>
</svg>
