<svg width="22" height="15" viewBox="0 0 22 15" fill="none" xmlns="http://www.w3.org/2000/svg">
<path d="M11 12C12.25 12 13.3125 11.5625 14.1875 10.6875C15.0625 9.8125 15.5 8.75 15.5 7.5C15.5 6.25 15.0625 5.1875 14.1875 4.3125C13.3125 3.4375 12.25 3 11 3C9.75 3 8.6875 3.4375 7.8125 4.3125C6.9375 5.1875 6.5 6.25 6.5 7.5C6.5 8.75 6.9375 9.8125 7.8125 10.6875C8.6875 11.5625 9.75 12 11 12ZM11 10.2C10.25 10.2 9.6125 9.9375 9.0875 9.4125C8.5625 8.8875 8.3 8.25 8.3 7.5C8.3 6.75 8.5625 6.1125 9.0875 5.5875C9.6125 5.0625 10.25 4.8 11 4.8C11.75 4.8 12.3875 5.0625 12.9125 5.5875C13.4375 6.1125 13.7 6.75 13.7 7.5C13.7 8.25 13.4375 8.8875 12.9125 9.4125C12.3875 9.9375 11.75 10.2 11 10.2ZM11 15C8.56667 15 6.35 14.3208 4.35 12.9625C2.41444 11.6479 0.994003 9.90018 0.0887007 7.71925C0.0304365 7.57889 0.0304366 7.42111 0.0887008 7.28075C0.994003 5.09982 2.41444 3.35207 4.35 2.0375C6.35 0.679167 8.56667 0 11 0C13.4333 0 15.65 0.679167 17.65 2.0375C19.5856 3.35207 21.006 5.09982 21.9113 7.28075C21.9696 7.42111 21.9696 7.57889 21.9113 7.71925C21.006 9.90018 19.5856 11.6479 17.65 12.9625C15.65 14.3208 13.4333 15 11 15ZM11 13C12.8833 13 14.6125 12.5042 16.1875 11.5125C17.7209 10.547 18.9028 9.25376 19.7332 7.63269C19.7758 7.5494 19.7758 7.4506 19.7332 7.36731C18.9028 5.74624 17.7209 4.45297 16.1875 3.4875C14.6125 2.49583 12.8833 2 11 2C9.11667 2 7.3875 2.49583 5.8125 3.4875C4.27911 4.45297 3.09722 5.74624 2.26682 7.36731C2.22416 7.4506 2.22416 7.5494 2.26682 7.63269C3.09722 9.25376 4.27911 10.547 5.8125 11.5125C7.3875 12.5042 9.11667 13 11 13Z" fill="#88CDE2"/>
</svg>
